<svg xmlns="http://www.w3.org/2000/svg" version="1.1" xmlns:xlink="http://www.w3.org/1999/xlink" xmlns:svgjs="http://svgjs.dev/svgjs" width="100%" height="100%" viewBox="0 0 1000 600"><rect width="1000" height="600" x="0" y="0" fill="#f0000"/><g><circle r="166.66666666666666" cx="379.9873911539713" cy="402.2097064424155" fill="#f1a0a0" transform="matrix(0.5859719393484869,0,0,0.5859719393484871,0,64.31640687562343)"/><path d="M275.3147946894072 477.20972239921537L275.3147946894072 327.2097269405215L289.8981275812247 327.2097269405215L289.8981275812247 472.9240082432527Q293.94574650630057 472.9240082432527 302.75527004911277 471.6442463772361L302.75527004911277 471.6442463772361L338.32074516283086 466.2871036822827L338.32074516283086 477.20972239921537L275.3147946894072 477.20972239921537ZM371.74336319856764 477.20972239921537L356.0886017677595 477.20972239921537L413.73740954622974 327.2097269405215L427.04098057203055 327.2097269405215L484.66002644663996 477.20972239921537L469.03502691969265 477.20972239921537L442.4576467719519 406.91210547988305L393.82669586331974 406.91210547988305L371.74336319856764 477.20972239921537ZM416.5350285091498 338.3406789844801L415.25526664313315 338.3406789844801L395.3147910563623 401.7930580158165L440.5231230209965 401.7930580158165L416.5350285091498 338.3406789844801Z " fill="#f0000" transform="matrix(0.5859719393484869,0,0,0.5859719393484871,0,64.31640687562343)"/><path d="M629.987409701302 474.3196095643755L629.987409701302 330.0998515727779L657.6009149516774 330.0998515727779Q679.4341838698498 330.0998515727779 691.4811120671637 339.25666160399044Q703.5280402644778 348.4420866665505 703.5280402644778 364.9243447227331L703.5280402644778 364.9243447227331Q703.5280402644778 377.6866487037356 696.0309020514226 386.12808295125967Q688.5051488070196 394.5981322301313 674.2834782272927 397.45963536488523L674.2834782272927 397.45963536488523L674.2834782272927 398.7186967441769Q687.8756181173738 401.37989465949806 696.5459726156782 411.4810007251794Q705.187712082635 421.58210679086073 709.5085818161135 436.4046930288861L709.5085818161135 436.4046930288861Q713.4288411107264 449.9968329189672 717.2346402799491 457.52258616336997Q721.0404394491718 465.0483394077728 725.6760745274731 468.3390680127398Q730.3117096057745 471.6297966177068 736.7214766276232 473.0891632164313L736.7214766276232 473.0891632164313L736.7214766276232 474.3196095643755L728.2514273487517 474.3196095643755Q719.2090774429292 474.3196095643755 713.3143809853361 471.0288809594085Q707.4482995590906 467.73815235444147 703.3277350450451 459.89763376521574Q699.2071705309993 452.05711517599 695.5158314871668 438.2646700664761L695.5158314871668 438.2646700664761Q689.5352899355312 417.032316806602 679.6344890892825 408.1902721202124Q669.7623032743816 399.31961240247523 655.5406326946545 399.31961240247523L655.5406326946545 399.31961240247523L654.3101863467103 399.31961240247523L654.3101863467103 395.6282733586427L655.5406326946545 395.6282733586427Q688.7054540264525 395.6282733586427 688.7054540264525 365.1246499421659L688.7054540264525 365.1246499421659Q688.7054540264525 335.05025199590216 657.6009149516774 335.05025199590216L657.6009149516774 335.05025199590216L644.0087750615962 335.05025199590216L644.0087750615962 474.3196095643755L629.987409701302 474.3196095643755ZM747.8241087904685 402.2097305685767L747.8241087904685 402.2097305685767Q747.8241087904685 386.35700320204 753.4898849972813 372.6504031865687Q759.155661204094 358.94380317109744 769.3712273951655 348.75685201137344Q779.5581785548894 338.54128582030194 793.2647785703607 332.8755096134892Q806.971378585832 327.20973340667643 822.8241059523688 327.20973340667643L822.8241059523688 327.20973340667643Q838.7054483502529 327.20973340667643 852.3834333343768 332.8755096134892Q866.090033349848 338.54128582030194 876.3055995409195 348.75685201137344Q886.4925507006435 358.94380317109744 892.1583269074563 372.6504031865687Q897.8241031142691 386.35700320204 897.8241031142691 402.2097305685767L897.8241031142691 402.2097305685767Q897.8241031142691 418.06245793511346 892.1583269074563 431.76905795058474Q886.4925507006435 445.475657966056 876.3055995409195 455.66260912577997Q866.090033349848 465.8781753168514 852.3834333343768 471.5439515236642Q838.7054483502529 477.20972773047697 822.8241059523688 477.20972773047697L822.8241059523688 477.20972773047697Q806.971378585832 477.20972773047697 793.2647785703607 471.5439515236642Q779.5581785548894 465.8781753168514 769.3712273951655 455.66260912577997Q759.155661204094 445.475657966056 753.4898849972813 431.76905795058474Q747.8241087904685 418.06245793511346 747.8241087904685 402.2097305685767ZM763.50514596892 402.2097305685767L763.50514596892 402.2097305685767Q763.50514596892 423.21316357767046 770.9164390879326 438.98004585016463Q778.3277322069453 454.7469281226587 791.7195668775936 463.5031277150057Q805.1114015482419 472.2593273073527 822.8241059523688 472.2593273073527L822.8241059523688 472.2593273073527Q840.5368103564955 472.2593273073527 853.9286450271438 463.5031277150057Q867.3204796977923 454.7469281226587 874.7603878481525 438.89420075612196Q882.171680967165 423.01285835823774 882.171680967165 402.2097305685767L882.171680967165 402.2097305685767Q882.171680967165 381.4066027789157 874.7603878481525 365.6397205064216Q867.3204796977923 349.8728382339275 853.9286450271438 341.0307935475379Q840.5368103564955 332.1601338298007 822.8241059523688 332.1601338298007L822.8241059523688 332.1601338298007Q805.1114015482419 332.1601338298007 791.8340270029838 340.9163334221477Q778.5280374263781 349.6725330144947 771.0022841819753 365.43941528698883Q763.50514596892 381.20629755948295 763.50514596892 402.2097305685767ZM939.0297482547255 416.63170636773646L939.0297482547255 330.0998515727779L953.0511136150196 330.0998515727779L953.0511136150196 417.032316806602Q953.0511136150196 441.98462414165624 965.2983470317665 455.89152937656024Q977.5455804485132 469.79843461146436 999.8080748368988 469.79843461146436L999.8080748368988 469.79843461146436Q1013.829440197193 469.79843461146436 1024.2166965763497 464.3329636240843Q1034.632567986854 458.86749263670436 1040.2983441936667 449.1956120412361Q1045.9641204004795 439.4951164144203 1045.5348949302665 426.93311765285057L1045.5348949302665 426.93311765285057L1042.0438611058667 330.0998515727779L1056.0652264661608 330.0998515727779L1052.5455776104136 426.93311765285057Q1051.715741701335 451.65650473712446 1037.8088364664309 464.4188087181269Q1023.9019312315268 477.20972773047697 998.1484030187414 477.20972773047697L998.1484030187414 477.20972773047697Q970.3345925489334 477.20972773047697 954.6821704018294 461.04223501911736Q939.0297482547255 444.84612727641013 939.0297482547255 416.63170636773646L939.0297482547255 416.63170636773646ZM1219.2281352098294 456.60690516024874L1220.4585815577734 456.60690516024874L1219.2281352098294 469.16890392181847Q1213.4478988776264 471.6297966177068 1205.2067698495352 473.48977365529686Q1196.965640821444 475.3497506928869 1188.5242065739199 476.2654316960082Q1180.0827723263958 477.20972773047697 1173.5013151164617 477.20972773047697L1173.5013151164617 477.20972773047697Q1156.790136809499 477.20972773047697 1142.5970812611195 471.5439515236642Q1128.3754106813924 465.8781753168514 1117.7592340514552 455.77706925117013Q1107.1430574215183 445.67596318548874 1101.1625158698826 431.96936317001746Q1095.2105893495946 418.29137818589373 1095.2105893495946 402.2097305685767L1095.2105893495946 402.2097305685767Q1095.2105893495946 386.12808295125967 1101.1625158698826 372.45009796713595Q1107.1430574215183 358.74349795166466 1117.7592340514552 348.64239188598333Q1128.3754106813924 338.54128582030194 1142.5970812611195 332.8755096134892Q1156.790136809499 327.20973340667643 1173.5013151164617 327.20973340667643L1173.5013151164617 327.20973340667643Q1180.2830775458285 327.20973340667643 1188.7245117933526 328.2398745351878Q1197.1945610722241 329.27001566369927 1205.2067698495352 331.01553257589916Q1213.2475936581936 332.78966451944655 1218.827524770964 335.05025199590216L1218.827524770964 335.05025199590216L1217.7973836424526 346.5821096289605L1216.5383222631608 346.5821096289605Q1208.9267239247151 339.5714269488134 1197.3948662916569 335.8800879049808Q1185.8630086585986 332.1601338298007 1173.5013151164617 332.1601338298007L1173.5013151164617 332.1601338298007Q1154.9587748032563 332.1601338298007 1140.8229493175718 340.9163334221477Q1126.7157388632352 349.6725330144947 1118.7893751799668 365.43941528698883Q1110.8630114966984 381.20629755948295 1110.8630114966984 402.2097305685767L1110.8630114966984 402.2097305685767Q1110.8630114966984 423.4420838284508 1118.7893751799668 439.09450597555474Q1126.7157388632352 454.7469281226587 1140.7371042235293 463.5031277150057Q1154.729854552476 472.2593273073527 1173.5013151164617 472.2593273073527L1173.5013151164617 472.2593273073527Q1187.4940654454085 472.2593273073527 1199.5409936427225 467.73815235444147Q1211.616536871384 463.18836237018274 1219.2281352098294 456.60690516024874L1219.2281352098294 456.60690516024874ZM1275.6855920585242 474.3196095643755L1261.66422669823 474.3196095643755L1261.66422669823 330.0998515727779L1275.6855920585242 330.0998515727779L1275.6855920585242 396.8587197065869L1362.2174468534827 396.8587197065869L1362.2174468534827 330.0998515727779L1376.2101971824295 330.0998515727779L1376.2101971824295 474.3196095643755L1362.2174468534827 474.3196095643755L1362.2174468534827 401.8091201297112L1275.6855920585242 401.8091201297112L1275.6855920585242 474.3196095643755ZM1493.245675393865 474.3196095643755L1429.7775358650229 474.3196095643755L1429.7775358650229 330.0998515727779L1492.616144704219 330.0998515727779L1492.616144704219 340.2009576384593L1456.5612052063198 335.4508624347677Q1447.0896298302841 334.22041608682355 1443.798901225317 334.22041608682355L1443.798901225317 334.22041608682355L1443.798901225317 397.0590249260197Q1446.4887141719857 397.0590249260197 1456.5612052063198 396.4294942363738L1456.5612052063198 396.4294942363738L1490.3555572277633 394.36921197935095L1490.3555572277633 403.869402386734L1456.5612052063198 401.8091201297112Q1446.4887141719857 401.1795894400653 1443.798901225317 401.1795894400653L1443.798901225317 401.1795894400653L1443.798901225317 470.1990450503299Q1447.5188553004973 470.1990450503299 1456.7901254571 468.9685987023857L1456.7901254571 468.9685987023857L1493.245675393865 464.2185034986942L1493.245675393865 474.3196095643755Z " fill="#ffff" transform="matrix(0.5859719393484869,0,0,0.5859719393484871,0,64.31640687562343)"/></g></svg>